<?xml version="1.0" encoding="UTF-8" standalone="no"?>
<!-- Created with Inkscape (http://www.inkscape.org/) -->

<svg
   xmlns:dc="http://purl.org/dc/elements/1.1/"
   xmlns:cc="http://creativecommons.org/ns#"
   xmlns:rdf="http://www.w3.org/1999/02/22-rdf-syntax-ns#"
   xmlns:svg="http://www.w3.org/2000/svg"
   xmlns="http://www.w3.org/2000/svg"
   xmlns:sodipodi="http://sodipodi.sourceforge.net/DTD/sodipodi-0.dtd"
   xmlns:inkscape="http://www.inkscape.org/namespaces/inkscape"
   width="2in"
   height="2in"
   viewBox="0 0 50.8 50.8"
   version="1.1"
   id="svg8"
   inkscape:version="0.92.4 (5da689c313, 2019-01-14)"
   sodipodi:docname="0w0_sticker.svg"
   inkscape:export-filename="/home/beka/Projects/0w0_sticker/0w0_sticker.png"
   inkscape:export-xdpi="600"
   inkscape:export-ydpi="600">
  <defs
     id="defs2" />
  <sodipodi:namedview
     id="base"
     pagecolor="#ffffff"
     bordercolor="#666666"
     borderopacity="1.0"
     inkscape:pageopacity="0.0"
     inkscape:pageshadow="2"
     inkscape:zoom="1.979899"
     inkscape:cx="143.19852"
     inkscape:cy="82.654092"
     inkscape:document-units="mm"
     inkscape:current-layer="layer1"
     showgrid="false"
     units="in"
     inkscape:window-width="1366"
     inkscape:window-height="731"
     inkscape:window-x="0"
     inkscape:window-y="18"
     inkscape:window-maximized="0" />
  <metadata
     id="metadata5">
    <rdf:RDF>
      <cc:Work
         rdf:about="">
        <dc:format>image/svg+xml</dc:format>
        <dc:type
           rdf:resource="http://purl.org/dc/dcmitype/StillImage" />
        <dc:title></dc:title>
      </cc:Work>
    </rdf:RDF>
  </metadata>
  <g
     inkscape:label="Layer 1"
     inkscape:groupmode="layer"
     id="layer1"
     transform="translate(0,-246.19999)">
    <text
       xml:space="preserve"
       style="font-style:normal;font-weight:normal;font-size:204.24530029px;line-height:1.25;font-family:sans-serif;letter-spacing:0px;word-spacing:0px;fill:#000000;fill-opacity:1;stroke:none;stroke-width:1.53183985"
       x="3.8651206"
       y="275.88538"
       id="text3944"><tspan
         sodipodi:role="line"
         id="tspan3942"
         x="3.8651206"
         y="456.5946"
         style="font-style:italic;font-variant:normal;font-weight:normal;font-stretch:normal;font-size:294.11328125px;font-family:'BPG Elite GPL&amp;GNU';-inkscape-font-specification:'BPG Elite GPL&amp;GNU Italic';stroke-width:1.53183985" /></text>
    <rect
       y="246.2"
       x="0"
       height="50.799999"
       width="50.799999"
       id="rect4761"
       style="opacity:0.97000002;fill:#ffffff;fill-opacity:1;stroke:none;stroke-width:0.11198543;stroke-linecap:round;stroke-linejoin:round;stroke-miterlimit:4;stroke-dasharray:none;stroke-opacity:1" />
    <rect
       style="opacity:0.97000002;fill:#000000;fill-opacity:1;stroke:none;stroke-width:0.10778598;stroke-linecap:round;stroke-linejoin:round;stroke-miterlimit:4;stroke-dasharray:none;stroke-opacity:1"
       id="rect3946"
       width="48.895"
       height="48.895"
       x="0.95249999"
       y="247.16519" />
    <rect
       style="opacity:0.97000002;fill:#0047ff;fill-opacity:1;stroke:none;stroke-width:0.15970907;stroke-linecap:round;stroke-linejoin:round;stroke-miterlimit:4;stroke-dasharray:none;stroke-opacity:1"
       id="rect4753"
       width="23.240999"
       height="23.240999"
       x="1.905"
       y="271.85397" />
    <rect
       y="271.85397"
       x="25.653999"
       height="23.240999"
       width="23.240999"
       id="rect4755"
       style="opacity:0.97000002;fill:#ffffff;fill-opacity:1;stroke:none;stroke-width:0.15970907;stroke-linecap:round;stroke-linejoin:round;stroke-miterlimit:4;stroke-dasharray:none;stroke-opacity:1" />
    <rect
       y="248.105"
       x="1.905"
       height="23.240999"
       width="23.240999"
       id="rect4757"
       style="opacity:0.97000002;fill:#ff0026;fill-opacity:1;stroke:none;stroke-width:0.15970907;stroke-linecap:round;stroke-linejoin:round;stroke-miterlimit:4;stroke-dasharray:none;stroke-opacity:1" />
    <rect
       style="opacity:0.97000002;fill:#ffd500;fill-opacity:1;stroke:none;stroke-width:0.15970907;stroke-linecap:round;stroke-linejoin:round;stroke-miterlimit:4;stroke-dasharray:none;stroke-opacity:1"
       id="rect4759"
       width="23.240999"
       height="23.240999"
       x="25.653999"
       y="248.105" />
    <g
       aria-label="0"
       transform="rotate(-45)"
       style="font-style:normal;font-weight:normal;font-size:35.27777481px;line-height:1.25;font-family:sans-serif;letter-spacing:0px;word-spacing:0px;fill:#000000;fill-opacity:1;stroke:none;stroke-width:0.26458332"
       id="text4765">
      <path
         d="m -190.88275,203.23625 q -1.71979,0 -2.59071,1.69775 -0.8599,1.68672 -0.8599,5.0822 0,3.38446 0.8599,5.08221 0.87092,1.68672 2.59071,1.68672 1.73082,0 2.59071,-1.68672 0.87092,-1.69775 0.87092,-5.08221 0,-3.39548 -0.87092,-5.0822 -0.85989,-1.69775 -2.59071,-1.69775 z m 0,-1.76389 q 2.7671,0 4.22231,2.19384 1.46623,2.18281 1.46623,6.35 0,4.15616 -1.46623,6.35 -1.45521,2.18281 -4.22231,2.18281 -2.7671,0 -4.23333,-2.18281 -1.45521,-2.19384 -1.45521,-6.35 0,-4.16719 1.45521,-6.35 1.46623,-2.19384 4.23333,-2.19384 z"
         style="font-size:22.57777786px;stroke-width:0.26458332"
         id="path4814" />
    </g>
    <g
       aria-label="0"
       transform="rotate(-45)"
       style="font-style:normal;font-weight:normal;font-size:35.27777481px;line-height:1.25;font-family:sans-serif;letter-spacing:0px;word-spacing:0px;fill:#000000;fill-opacity:1;stroke:none;stroke-width:0.26458332"
       id="text4769">
      <path
         d="m -157.29661,203.23627 q -1.71979,0 -2.59071,1.69774 -0.8599,1.68672 -0.8599,5.08221 0,3.38446 0.8599,5.0822 0.87092,1.68672 2.59071,1.68672 1.73081,0 2.59071,-1.68672 0.87092,-1.69774 0.87092,-5.0822 0,-3.39549 -0.87092,-5.08221 -0.8599,-1.69774 -2.59071,-1.69774 z m 0,-1.76389 q 2.7671,0 4.22231,2.19384 1.46623,2.18281 1.46623,6.35 0,4.15616 -1.46623,6.35 -1.45521,2.18281 -4.22231,2.18281 -2.7671,0 -4.23333,-2.18281 -1.45521,-2.19384 -1.45521,-6.35 0,-4.16719 1.45521,-6.35 1.46623,-2.19384 4.23333,-2.19384 z"
         style="font-size:22.57777786px;stroke-width:0.26458332"
         id="path4817" />
    </g>
    <g
       aria-label="w"
       transform="rotate(-45)"
       style="font-style:normal;font-weight:normal;font-size:35.27777481px;line-height:1.25;font-family:sans-serif;letter-spacing:0px;word-spacing:0px;fill:#000000;fill-opacity:1;stroke:none;stroke-width:0.26458332"
       id="text4773">
      <path
         d="m -182.37443,221.37852 h 2.02847 l 2.53559,9.63524 2.52456,-9.63524 h 2.39228 l 2.53559,9.63524 2.52456,-9.63524 h 2.02848 l -3.23012,12.34722 h -2.39228 l -2.65686,-10.12031 -2.66788,10.12031 h -2.39227 z"
         style="font-size:22.57777786px;stroke-width:0.26458332"
         id="path4827" />
    </g>
    <g
       aria-label="—"
       transform="rotate(-45)"
       style="font-style:normal;font-weight:normal;font-size:35.27777481px;line-height:1.25;font-family:sans-serif;letter-spacing:0px;word-spacing:0px;fill:#000000;fill-opacity:1;stroke:none;stroke-width:0.26458332"
       id="text4777">
      <path
         d="m -184.27612,226.75839 h 20.37291 v 1.5875 h -20.37291 z"
         style="font-size:22.57777786px;stroke-width:0.26458332"
         id="path4824" />
    </g>
  </g>
</svg>
